# xmcd
#
# Track frame offsets: 
#        150
#        13754
#        31206
#        50181
#        67594
#        87491
#        106665
#        127436
#        141148
#        160501
#        176235
#        196437
#        217306
#        244598
#
# Disc length: 3478 seconds
#
# Revision: 0
# Processed by: cddbd v1.5.2PL0 Copyright (c) Steve Scherf et al.
# Submitted via: ExactAudioCopy v1.1
#
DISCID=cb0d940e
DTITLE=Dave Stamey - Western Stories
DYEAR=2016
DGENRE=Country
TTITLE0=Let Me Sell You a Dream
TTITLE1=Runaway Horse
TTITLE2=New Mexico Woman
TTITLE3=Fence Building Blues
TTITLE4=The Land Where Cedars Grow
TTITLE5=Custer's Ghost
TTITLE6=The Ballad of Bart McGee
TTITLE7=Sell Me a Pony
TTITLE8=At the Truck Stop
TTITLE9=The Blue Light Motel
TTITLE10=The Orange Cove Auto Repair and Smog
TTITLE11=Montana Homestead 1915
TTITLE12=The Ghost of Old 83
TTITLE13=Again
EXTD=
EXTT0=
EXTT1=
EXTT2=
EXTT3=
EXTT4=
EXTT5=
EXTT6=
EXTT7=
EXTT8=
EXTT9=
EXTT10=
EXTT11=
EXTT12=
EXTT13=
PLAYORDER=
